<svg xmlns="http://www.w3.org/2000/svg" width="16" height="16" fill="#ff5f5f"><path d="m1.0028746 9.4112124v-7.4917055c.0385818-.534018.4492637-.9195069.9971254-.9195069h7.4017052l-2.3972159 2.4013638v-.3975085h-4.0013623v4.4069359l-.00257.00258v-.00258z"/><path d="m4.5232504 5.8894409 1.4421022-1.4440806-.4055377-.2721602-1.1102987 1.6673035z"/><path fill="#5fff97" d="m9.4081893 1h4.5980937c.575298 0 1.000555.4258406 1.000555 1.0019276v4.6078366l-2.001109 2.0029967v-5.6089056h-4.0005057v2.1360717l1.4446737-.9667269 1.110299 1.6673035-2.9999495 2.0029966c-.3360904.2240816-.7750657.2240816-1.1102988 0l-2.9270731-1.9540593 1.4421022-1.4440806 1.0391367.6945667v-1.7359876l.00343-.00258v.00258z"/><path fill="#5fff97" d="m1.0028746 14.021625v-4.6078369l.00343-.00256v.00256l1.9976798-2.0004213v5.6063302h2.0002525v-1.502463c0-.824207.6773251-1.502462 1.5004037-1.502462h3.0008072c.5641512 0 1.0605722.319381 1.3160692.785574l-4.2165638 4.223206h-4.6015237c-.5752977 0-1.0005549-.425841-1.0005549-1.001927z"/><path fill="#5fb2ff" d="m15.007214 6.6097642v7.4118608c0 .576086-.425258 1.001927-1.000556 1.001927h-7.4017048l4.2165638-4.223206c.117459.213779.184335.458466.184335.716888v1.502463h2.000253v-4.4069361z"/></svg>