<svg xmlns="http://www.w3.org/2000/svg" height="16" width="16"><path fill="#ffffff" fill-opacity=".8" d="m3.293 1.293c.9241323-.9241323 2.3381326.4898674 1.414 1.414-2.2455478 2.5015523-2.245487 8.084515 0 10.586.9241323.924132-.4898675 2.338133-1.414 1.414-3.01735284-3.13724-3.01717907-10.2769402 0-13.414zm8 1.414c-.924132-.9241324.489868-2.33813249 1.414-1.414 3.017353 3.1372405 3.017179 10.27694 0 13.414-.924133.924133-2.338132-.489868-1.414-1.414 2.245548-2.501552 2.245487-8.0845155 0-10.586zm-5.293 5.293c0 1.307387-2 1.307387-2 0s2-1.307387 2 0zm3 0c0 1.307387-2 1.307387-2 0s2-1.307387 2 0zm3 0c0 1.307387-2 1.307387-2 0s2-1.307387 2 0z"/></svg>